# xmcd CD database file
#
# Track frame offsets:
#	150
#	14253
#	30791
#	42344
#	73104
#	93339
#	100170
#	126995
#	138547
#	153340
#	166630
#
# Disc length: 2495 seconds
#
# Revision: 0
# Processed by: cddbd v1.5.2PL0 Copyright (c) Steve Scherf et al.
# Submitted via: CDex 1.97
#
DISCID=8309bd0b
DTITLE=Little Brother Montgomery - SCD - 39 Little Brother Montgomery
DYEAR=1900
DGENRE=Blues
TTITLE0=Elementary Blues
TTITLE1=Crescent City Blues
TTITLE2=No Special Rider
TTITLE3=Muleface
TTITLE4=Someday You'll Be Sorry
TTITLE5=Someday You'll Be Sorry - Reprise
TTITLE6=Medley
TTITLE7=London Shout
TTITLE8=Your Love is So Incredible
TTITLE9=Memories of You
TTITLE10=Little Brother's Little Boogie
EXTD=
EXTT0=
EXTT1=
EXTT2=
EXTT3=
EXTT4=
EXTT5=
EXTT6=
EXTT7=
EXTT8=
EXTT9=
EXTT10=
PLAYORDER=
